<svg width="21" height="20" viewBox="0 0 21 20" fill="none" xmlns="http://www.w3.org/2000/svg">
<g id="eva:calendar-fill">
<path id="Vector" d="M15.2 3.33366H14.3667V2.50033C14.3667 2.27931 14.2789 2.06735 14.1226 1.91107C13.9663 1.75479 13.7544 1.66699 13.5333 1.66699C13.3123 1.66699 13.1004 1.75479 12.9441 1.91107C12.7878 2.06735 12.7 2.27931 12.7 2.50033V3.33366H7.70001V2.50033C7.70001 2.27931 7.61221 2.06735 7.45593 1.91107C7.29965 1.75479 7.08769 1.66699 6.86668 1.66699C6.64566 1.66699 6.4337 1.75479 6.27742 1.91107C6.12114 2.06735 6.03335 2.27931 6.03335 2.50033V3.33366H5.20001C4.53697 3.33366 3.90109 3.59705 3.43225 4.06589C2.9634 4.53473 2.70001 5.17062 2.70001 5.83366V15.8337C2.70001 16.4967 2.9634 17.1326 3.43225 17.6014C3.90109 18.0703 4.53697 18.3337 5.20001 18.3337H15.2C15.8631 18.3337 16.4989 18.0703 16.9678 17.6014C17.4366 17.1326 17.7 16.4967 17.7 15.8337V5.83366C17.7 5.17062 17.4366 4.53473 16.9678 4.06589C16.4989 3.59705 15.8631 3.33366 15.2 3.33366ZM6.86668 14.167C6.70186 14.167 6.54074 14.1181 6.4037 14.0266C6.26666 13.935 6.15985 13.8048 6.09678 13.6526C6.03371 13.5003 6.0172 13.3327 6.04936 13.1711C6.08151 13.0094 6.16088 12.8609 6.27742 12.7444C6.39397 12.6279 6.54245 12.5485 6.7041 12.5163C6.86575 12.4842 7.03331 12.5007 7.18558 12.5638C7.33785 12.6268 7.468 12.7336 7.55957 12.8707C7.65114 13.0077 7.70001 13.1688 7.70001 13.3337C7.70001 13.5547 7.61221 13.7666 7.45593 13.9229C7.29965 14.0792 7.08769 14.167 6.86668 14.167ZM13.5333 14.167H10.2C9.979 14.167 9.76704 14.0792 9.61076 13.9229C9.45448 13.7666 9.36668 13.5547 9.36668 13.3337C9.36668 13.1126 9.45448 12.9007 9.61076 12.7444C9.76704 12.5881 9.979 12.5003 10.2 12.5003H13.5333C13.7544 12.5003 13.9663 12.5881 14.1226 12.7444C14.2789 12.9007 14.3667 13.1126 14.3667 13.3337C14.3667 13.5547 14.2789 13.7666 14.1226 13.9229C13.9663 14.0792 13.7544 14.167 13.5333 14.167ZM16.0333 9.16699H4.36668V5.83366C4.36668 5.61265 4.45448 5.40068 4.61076 5.2444C4.76704 5.08812 4.979 5.00033 5.20001 5.00033H6.03335V5.83366C6.03335 6.05467 6.12114 6.26663 6.27742 6.42291C6.4337 6.5792 6.64566 6.66699 6.86668 6.66699C7.08769 6.66699 7.29965 6.5792 7.45593 6.42291C7.61221 6.26663 7.70001 6.05467 7.70001 5.83366V5.00033H12.7V5.83366C12.7 6.05467 12.7878 6.26663 12.9441 6.42291C13.1004 6.5792 13.3123 6.66699 13.5333 6.66699C13.7544 6.66699 13.9663 6.5792 14.1226 6.42291C14.2789 6.26663 14.3667 6.05467 14.3667 5.83366V5.00033H15.2C15.421 5.00033 15.633 5.08812 15.7893 5.2444C15.9455 5.40068 16.0333 5.61265 16.0333 5.83366V9.16699Z" fill="#181A18"/>
</g>
</svg>
