<svg width="21" height="20" viewBox="0 0 21 20" fill="none" xmlns="http://www.w3.org/2000/svg">
<g id="eva:people-fill">
<path id="Vector" d="M7.90029 9.16667C8.55956 9.16667 9.20403 8.97117 9.75219 8.6049C10.3004 8.23863 10.7276 7.71803 10.9799 7.10895C11.2322 6.49986 11.2982 5.82964 11.1696 5.18303C11.041 4.53643 10.7235 3.94249 10.2573 3.47631C9.79114 3.01014 9.19719 2.69267 8.55059 2.56405C7.90399 2.43543 7.23376 2.50144 6.62468 2.75374C6.01559 3.00603 5.49499 3.43327 5.12872 3.98143C4.76245 4.5296 4.56696 5.17406 4.56696 5.83334C4.56696 6.71739 4.91814 7.56524 5.54327 8.19036C6.16839 8.81548 7.01623 9.16667 7.90029 9.16667ZM14.567 10.8333C15.0614 10.8333 15.5448 10.6867 15.9559 10.412C16.367 10.1373 16.6874 9.74686 16.8767 9.29004C17.0659 8.83323 17.1154 8.33056 17.0189 7.84561C16.9225 7.36066 16.6844 6.9152 16.3347 6.56557C15.9851 6.21594 15.5396 5.97784 15.0547 5.88137C14.5697 5.78491 14.0671 5.83442 13.6102 6.02364C13.1534 6.21286 12.763 6.53329 12.4883 6.94441C12.2136 7.35553 12.067 7.83888 12.067 8.33334C12.067 8.99638 12.3303 9.63226 12.7992 10.1011C13.268 10.5699 13.9039 10.8333 14.567 10.8333ZM17.9003 16.6667C18.1213 16.6667 18.3333 16.5789 18.4895 16.4226C18.6458 16.2663 18.7336 16.0543 18.7336 15.8333C18.733 15.0545 18.514 14.2914 18.1016 13.6307C17.6893 12.97 17.0999 12.4381 16.4006 12.0954C15.7012 11.7527 14.9198 11.6128 14.1449 11.6917C13.3701 11.7705 12.6329 12.065 12.017 12.5417C11.2007 11.7286 10.162 11.1755 9.03181 10.952C7.90162 10.7285 6.73056 10.8447 5.66631 11.2859C4.60207 11.7272 3.6923 12.4736 3.05174 13.4312C2.41118 14.3888 2.06851 15.5146 2.06696 16.6667C2.06696 16.8877 2.15475 17.0996 2.31103 17.2559C2.46731 17.4122 2.67928 17.5 2.90029 17.5H12.9003C13.1213 17.5 13.3333 17.4122 13.4895 17.2559C13.6458 17.0996 13.7336 16.8877 13.7336 16.6667" fill="#181A18"/>
</g>
</svg>
