<svg width="24" height="24" viewBox="0 0 24 24" fill="none" xmlns="http://www.w3.org/2000/svg">
<g id="eva:arrow-left-fill">
<path id="Vector" d="M13.54 18.0002C13.0666 18.0008 12.6076 17.8383 12.24 17.5402L7.13996 13.3302C6.93996 13.171 6.77845 12.9687 6.66744 12.7384C6.55643 12.5082 6.49878 12.2558 6.49878 12.0002C6.49878 11.7446 6.55643 11.4922 6.66744 11.2619C6.77845 11.0317 6.93996 10.8294 7.13996 10.6702L12.24 6.46019C12.547 6.21419 12.917 6.05938 13.3077 6.01341C13.6984 5.96744 14.0942 6.03216 14.45 6.20019C14.7591 6.33647 15.0225 6.55886 15.2087 6.84081C15.3949 7.12276 15.496 7.45234 15.5 7.79019V16.2102C15.496 16.548 15.3949 16.8776 15.2087 17.1596C15.0225 17.4415 14.7591 17.6639 14.45 17.8002C14.1641 17.9302 13.854 17.9983 13.54 18.0002Z" fill="#181A18"/>
</g>
</svg>
