<svg width="24" height="24" viewBox="0 0 24 24" fill="none" xmlns="http://www.w3.org/2000/svg">
<g id="eva:arrow-right-fill">
<path id="Vector" d="M10.46 18.0002C10.146 17.9983 9.83587 17.9302 9.55 17.8002C9.24083 17.6639 8.97741 17.4415 8.79122 17.1596C8.60503 16.8776 8.50393 16.548 8.5 16.2102V7.79019C8.50393 7.45234 8.60503 7.12276 8.79122 6.84081C8.97741 6.55886 9.24083 6.33647 9.55 6.20019C9.90574 6.03216 10.3015 5.96744 10.6923 6.01341C11.083 6.05938 11.453 6.21419 11.76 6.46019L16.86 10.6702C17.06 10.8294 17.2215 11.0317 17.3325 11.2619C17.4435 11.4922 17.5012 11.7446 17.5012 12.0002C17.5012 12.2558 17.4435 12.5082 17.3325 12.7384C17.2215 12.9687 17.06 13.171 16.86 13.3302L11.76 17.5402C11.3924 17.8383 10.9333 18.0008 10.46 18.0002Z" fill="#181A18"/>
</g>
</svg>
